Coordinates
version=1
nRows=9
nColumns=63
inDegrees=yes

Units are S.I. units (second, meters, Newtons, ...)
If the header above contains a line with 'inDegrees', this indicates whether rotational values are in degrees (yes) or radians (no).

endheader
time	pelvis_tilt	pelvis_list	pelvis_rotation	pelvis_tx	pelvis_ty	pelvis_tz	hip_flexion_r	hip_adduction_r	hip_rotation_r	knee_angle_r	knee_angle_r_beta	ankle_angle_r	subtalar_angle_r	mtp_angle_r	hip_flexion_l	hip_adduction_l	hip_rotation_l	knee_angle_l	knee_angle_l_beta	ankle_angle_l	subtalar_angle_l	mtp_angle_l	L5_S1_Flex_Ext	L5_S1_Lat_Bending	L5_S1_axial_rotation	L4_L5_Flex_Ext	L4_L5_Lat_Bending	L4_L5_axial_rotation	L3_L4_Flex_Ext	L3_L4_Lat_Bending	L3_L4_axial_rotation	L2_L3_Flex_Ext	L2_L3_Lat_Bending	L2_L3_axial_rotation	L1_L2_Flex_Ext	L1_L2_Lat_Bending	L1_L2_axial_rotation	L1_T12_Flex_Ext	L1_T12_Lat_Bending	L1_T12_axial_rotation	Abs_r3	Abs_r2	Abs_r1	Abs_t1	Abs_t2	neck_flexion	neck_bending	neck_rotation	arm_flex_r	arm_add_r	arm_rot_r	elbow_flex_r	pro_sup_r	wrist_flex_r	wrist_dev_r	arm_flex_l	arm_add_l	arm_rot_l	elbow_flex_l	pro_sup_l	wrist_flex_l	wrist_dev_l
      1.19512195	     -1.64037836	     -4.73241745	     85.74357025	      0.21233306	      0.79163580	      0.76587307	      1.38488799	     -1.71713828	     -2.21238062	      3.96162219	      0.06914335	     27.13735577	      6.28701669	      0.00000000	      4.99863794	      1.50799083	     -8.18649470	     10.54322275	      0.18401395	     27.57803680	      3.51671539	      0.00000000	      0.15801212	      0.03874760	     -0.10458678	      0.29344430	      0.05153431	     -0.11112345	      0.25959811	      0.09421092	     -0.11112345	      0.18059205	      0.09421092	     -0.09151343	      0.14673005	      0.07901411	     -0.08497676	      0.09028812	      0.06002003	     -0.07844009	      1.12866475	      0.43832062	     -0.58168030	      0.00000000	      0.00000000	     25.28937795	     -0.95209223	      3.23707994	     21.23710185	     -1.98615694	     78.24851680	     25.90206759	     34.22463925	     -0.77360196	      8.72198768	     22.38453024	     -3.93562676	     85.33905127	     27.89626190	     35.78522144	      2.79297255	     -6.26193847
      1.21951220	     -1.60530075	     -4.66071509	     85.65696321	      0.21284331	      0.79219598	      0.76622300	      1.39534339	     -1.66628704	     -2.64301580	      4.01679984	      0.07010638	     27.24468609	      6.89070461	      0.00000000	      4.97443391	      1.37329845	     -8.06977892	     10.66354680	      0.18611400	     27.36744099	      3.37799929	      0.00000000	      0.14335744	      0.03027021	     -0.03348058	      0.26622910	      0.04025938	     -0.03557312	      0.23552194	      0.07359900	     -0.03557312	      0.16384322	      0.07359900	     -0.02929551	      0.13312172	      0.06172702	     -0.02720297	      0.08191444	      0.04688856	     -0.02511044	      1.02398786	      0.34242271	     -0.18620895	      0.00000000	      0.00000000	     25.22254449	     -0.72017897	      2.65866065	     21.09426879	     -1.95039502	     77.43544953	     25.85289699	     35.05012491	     -0.94485282	      8.54266337	     22.49487589	     -3.79179116	     85.08377706	     27.77053783	     37.11311701	      2.17140289	     -5.47171346
      1.24390244	     -1.73220406	     -4.67312081	     85.37570940	      0.21374367	      0.79262546	      0.76684447	      1.69494289	     -1.78500157	     -3.23790326	      4.32698248	      0.07552009	     27.65255882	      7.94291202	      0.00000000	      4.93912889	      1.46228022	     -7.46504265	     10.48188271	      0.18294337	     26.83428187	      2.28601962	      0.00000000	      0.13383885	     -0.00297143	      0.09421711	      0.24855213	     -0.00395200	      0.10010568	      0.21988385	     -0.00722473	      0.10010568	      0.15296443	     -0.00722473	      0.08243997	      0.12428276	     -0.00605934	      0.07655140	      0.07647552	     -0.00460274	      0.07066283	      0.95599754	     -0.03361340	      0.52400731	      0.00000000	      0.00000000	     25.22420529	     -0.44750998	      1.83116375	     20.81325239	     -1.74695048	     76.22920588	     25.70298945	     34.63988381	     -0.78510582	      8.00280039	     23.00698508	     -3.55398524	     86.68917993	     26.96431701	     39.01247154	      2.34272111	     -5.94015056
      1.26829268	     -1.71018675	     -4.67153637	     85.34140209	      0.21420019	      0.79292983	      0.76702344	      1.77896279	     -1.70996542	     -3.27158096	      4.30490563	      0.07513478	     27.72022836	      7.92549245	      0.00000000	      4.97925390	      1.33798892	     -7.36866029	     10.49668679	      0.18320175	     26.78787467	      2.30460663	      0.00000000	      0.12093538	     -0.01037128	      0.11023706	      0.22458910	     -0.01379380	      0.11712688	      0.19868474	     -0.02521673	      0.11712688	      0.13821705	     -0.02521673	      0.09645743	      0.11230060	     -0.02114912	      0.08956761	      0.06910248	     -0.01606511	      0.08267780	      0.86382934	     -0.11732200	      0.61310547	      0.00000000	      0.00000000	     25.26100331	     -0.45467143	      1.83723118	     20.81174923	     -1.55969015	     76.20637525	     25.76556794	     34.60752930	     -0.79442864	      7.90953063	     22.95334485	     -3.63820417	     86.72328783	     26.76955479	     38.99917592	      2.29318248	     -5.90448594
      1.29268293	     -1.77041772	     -4.84141822	     85.03188713	      0.21481954	      0.79293598	      0.76782931	      2.28576790	     -1.73145001	     -3.26022939	      4.60079901	      0.08029909	     27.94728983	      8.00153075	      0.00000000	      5.35986424	      1.31822074	     -6.88752303	     10.72513342	      0.18718889	     26.77011667	      1.40704763	      0.00000000	      0.11676250	     -0.03103947	      0.22939464	      0.21683963	     -0.04128249	      0.24373181	      0.19182911	     -0.07546936	      0.24373181	      0.13344786	     -0.07546936	      0.20072031	      0.10842566	     -0.06329568	      0.18638315	      0.06671809	     -0.04808013	      0.17204598	      0.83402284	     -0.35112464	      1.27582418	      0.00000000	      0.00000000	     25.66082101	     -0.35135683	      1.30972592	     20.54482015	     -1.25009700	     75.83390611	     25.43994223	     33.58768233	     -1.03694236	      5.80193763	     23.13525213	     -3.29563180	     87.59955332	     25.76033881	     38.74930082	      2.53636703	     -6.07039395
      1.31707317	     -1.78257706	     -4.93744084	     84.79652761	      0.21509186	      0.79288552	      0.76831106	      2.59270326	     -1.70965729	     -3.40178818	      4.70174617	      0.08206095	     27.77376953	      7.85410922	      0.00000000	      5.58071103	      1.25800269	     -6.77444756	     10.84170138	      0.18922339	     26.83329631	      1.17483855	      0.00000000	      0.10171560	     -0.03639852	      0.26474251	      0.18889605	     -0.04841003	      0.28128891	      0.16710856	     -0.08849935	      0.28128891	      0.11625076	     -0.08849935	      0.23164969	      0.09445311	     -0.07422386	      0.21510329	      0.05812030	     -0.05638130	      0.19855688	      0.72654438	     -0.41174730	      1.47241840	      0.00000000	      0.00000000	     26.06725031	     -0.44110855	      1.29215192	     20.55699304	     -0.83930275	     75.78455076	     25.03849818	     33.31351729	     -1.08760496	      5.42304653	     23.13261456	     -3.18358845	     87.59611382	     25.14048037	     38.50570042	      2.49884931	     -6.28376409
      1.34146341	     -1.69576289	     -5.09325394	     84.44065198	      0.21525285	      0.79258737	      0.76880777	      3.09724849	     -1.54211501	     -2.05983381	      5.09978320	      0.08900801	     27.54653538	      5.71063198	      0.00000000	      5.91126890	      1.33284127	     -4.30949986	     11.08419808	      0.19345575	     26.06150172	     -2.71336141	      0.00000000	      0.10372947	     -0.02417950	      0.31654262	      0.19263600	     -0.03215874	      0.33632654	      0.17041715	     -0.05879004	      0.33632654	      0.11855241	     -0.05879004	      0.27697480	      0.09632319	     -0.04930684	      0.25719088	      0.05927102	     -0.03745405	      0.23740697	      0.74092923	     -0.27352336	      1.76051511	      0.00000000	      0.00000000	     26.29351333	     -0.64931202	      1.35841746	     21.70819837	     -0.44658471	     82.84697020	     23.92090421	     24.32848316	     -0.20787376	      2.73019130	     24.06587390	     -2.63840649	     94.41642758	     23.89129746	     28.08126363	      3.72882086	     -8.80234400
      1.36585366	     -1.57354613	     -5.31012260	     84.24796175	      0.21488162	      0.79182448	      0.76924236	      3.81826147	     -1.43069677	     -2.37851987	      5.90503198	      0.10306225	     27.77593530	      5.35169545	      0.00000000	      6.42922010	      1.18855484	     -3.83503064	     11.70910145	      0.20436237	     25.88394381	     -3.59848356	      0.00000000	      0.10911726	      0.00105915	      0.32218103	      0.20264167	      0.00140867	      0.34231734	      0.17926875	      0.00257522	      0.34231734	      0.12471012	      0.00257522	      0.28190840	      0.10132629	      0.00215982	      0.26177209	      0.06234960	      0.00164062	      0.24163577	      0.77941371	      0.01198132	      1.79187423	      0.00000000	      0.00000000	     26.69369656	     -0.74389925	      1.90626316	     21.93687091	     -0.25923344	     84.02739741	     23.12713632	     24.33750799	      0.20110307	      1.87512345	     23.89806446	     -2.39088148	     94.46119453	     23.13313701	     26.65997970	      4.36325306	     -9.18275215
      1.39024390	     -1.54014193	     -5.55996081	     83.87611470	      0.21448705	      0.79070575	      0.76972497	      4.78127715	     -1.45063211	     -2.90222943	      7.14490295	      0.12470208	     28.39749171	      5.42738548	      0.00000000	      6.99822423	      1.14642372	     -3.41148968	     12.43158996	      0.21697218	     25.41146764	     -4.94062515	      0.00000000	      0.12961718	      0.01932445	      0.36925791	      0.24071207	      0.02570152	      0.39233653	      0.21294807	      0.04698546	      0.39233653	      0.14813948	      0.04698546	      0.32310068	      0.12036252	      0.03940642	      0.30002206	      0.07406326	      0.02993357	      0.27694344	      0.92584258	      0.21860203	      2.05370174	      0.00000000	      0.00000000	     26.98261088	     -0.96507193	      2.14107541	     22.32904059	     -0.24330128	     86.16802917	     22.18451524	     25.59274367	      0.18624872	      0.85234098	     23.73603898	     -2.17053346	     95.08356736	     22.25592409	     25.73437782	      4.72101853	     -8.95851929
